<?xml version="1.0" encoding="UTF-8"?>
<svg width="40px" height="40px" viewBox="0 0 40 40" version="1.1" xmlns="http://www.w3.org/2000/svg" xmlns:xlink="http://www.w3.org/1999/xlink">
    <title>icon/办结率</title>
    <g id="icon/办结率" stroke="none" stroke-width="1" fill="none" fill-rule="evenodd">
        <g id="file-protect" fill="#000000" fill-rule="nonzero">
            <rect id="矩形" opacity="0" x="0" y="0" width="40" height="40"></rect>
            <path d="M25.1835938,26.140625 C25.125,26.0585937 25.03125,26.0117188 24.9296875,26.0117188 L23.203125,26.0117188 C22.9492188,26.0117188 22.8007813,26.3007812 22.9492188,26.5078125 L25.8320313,30.4960938 C25.9570313,30.6679688 26.2109375,30.6679688 26.3359375,30.4960938 L30.796875,24.3242188 C30.9453125,24.1171875 30.796875,23.828125 30.5429688,23.828125 L28.8125,23.828125 C28.7109375,23.828125 28.6171875,23.875 28.5585938,23.9570312 L26.078125,27.3867187 L25.1835938,26.140625 Z M26.875,11.953125 L26.875,10.078125 C26.875,9.90625 26.734375,9.765625 26.5625,9.765625 L11.5625,9.765625 C11.390625,9.765625 11.25,9.90625 11.25,10.078125 L11.25,11.953125 C11.25,12.125 11.390625,12.265625 11.5625,12.265625 L26.5625,12.265625 C26.734375,12.265625 26.875,12.125 26.875,11.953125 Z M11.5625,15.390625 C11.390625,15.390625 11.25,15.53125 11.25,15.703125 L11.25,17.578125 C11.25,17.75 11.390625,17.890625 11.5625,17.890625 L18.75,17.890625 C18.921875,17.890625 19.0625,17.75 19.0625,17.578125 L19.0625,15.703125 C19.0625,15.53125 18.921875,15.390625 18.75,15.390625 L11.5625,15.390625 Z M18.75,33.28125 L8.125,33.28125 L8.125,5.78125 L30,5.78125 L30,17.34375 C30,17.515625 30.140625,17.65625 30.3125,17.65625 L32.5,17.65625 C32.671875,17.65625 32.8125,17.515625 32.8125,17.34375 L32.8125,4.21875 C32.8125,3.52734375 32.2539062,2.96875 31.5625,2.96875 L6.5625,2.96875 C5.87109375,2.96875 5.3125,3.52734375 5.3125,4.21875 L5.3125,34.84375 C5.3125,35.5351562 5.87109375,36.09375 6.5625,36.09375 L18.75,36.09375 C18.921875,36.09375 19.0625,35.953125 19.0625,35.78125 L19.0625,33.59375 C19.0625,33.421875 18.921875,33.28125 18.75,33.28125 Z M34.4765625,20.75 L26.9765625,18.1445312 C26.9414062,18.1328125 26.9101562,18.1289062 26.875,18.1289062 C26.8398438,18.1289062 26.8046875,18.1328125 26.7734375,18.1445312 L19.2734375,20.75 C19.1484375,20.7929688 19.0625,20.9101562 19.0625,21.0429688 L19.0625,30.8515625 C19.0625,30.9492188 19.1054688,31.0390625 19.1835938,31.0976562 L26.6835938,36.9648438 C26.7382812,37.0078125 26.8085938,37.03125 26.875,37.03125 C26.9414062,37.03125 27.0117188,37.0078125 27.0664062,36.9648438 L34.5664062,31.0976562 C34.640625,31.0390625 34.6875,30.9492187 34.6875,30.8515625 L34.6875,21.0429688 C34.6875,20.9101562 34.6015625,20.7929688 34.4765625,20.75 Z M32.265625,29.8320312 L26.875,34.046875 L21.484375,29.8320312 L21.484375,22.5390625 L26.875,20.6640625 L32.265625,22.5390625 L32.265625,29.8320312 Z" id="形状"></path>
        </g>
    </g>
</svg>