<?xml version="1.0" encoding="UTF-8"?>
<svg width="40px" height="40px" viewBox="0 0 40 40" version="1.1" xmlns="http://www.w3.org/2000/svg" xmlns:xlink="http://www.w3.org/1999/xlink">
    <title>icon/积分</title>
    <g id="icon/积分" stroke="none" stroke-width="1" fill="none" fill-rule="evenodd">
        <g id="trophy" fill="#000000" fill-rule="nonzero">
            <rect id="矩形" opacity="0" x="0" y="0" width="40" height="40"></rect>
            <path d="M34.295,6.86 L30.73,6.86 L30.73,5.31 C30.73,5.1395 30.5905,5 30.42,5 L10.58,5 C10.4095,5 10.27,5.1395 10.27,5.31 L10.27,6.86 L6.705,6.86 C5.763375,6.86 5,7.623375 5,8.565 L5,14.3 C5,17.465875 7.325,20.097 10.35525,20.5775 C10.955875,25.08025 14.57125,28.625875 19.105,29.121875 L19.105,33.198375 L11.51,33.198375 C10.824125,33.198375 10.27,33.7525 10.27,34.438375 L10.27,35.69 C10.27,35.8605 10.4095,36 10.58,36 L30.42,36 C30.5905,36 30.73,35.8605 30.73,35.69 L30.73,34.438375 C30.73,33.7525 30.175875,33.198375 29.49,33.198375 L21.895,33.198375 L21.895,29.121875 C26.42875,28.625875 30.044125,25.08025 30.64475,20.5775 C33.675,20.097 36,17.465875 36,14.3 L36,8.565 C36,7.623375 35.236625,6.86 34.295,6.86 Z M7.79,14.3 L7.79,9.65 L10.27,9.65 L10.27,17.6945 C8.832375,17.23725 7.79,15.88875 7.79,14.3 Z M27.94,19.26 C27.94,21.162625 27.199875,22.95675 25.851375,24.301375 C24.502875,25.649875 22.712625,26.39 20.81,26.39 L20.19,26.39 C18.287375,26.39 16.49325,25.649875 15.148625,24.301375 C13.800125,22.952875 13.06,21.162625 13.06,19.26 L13.06,7.79 L27.94,7.79 L27.94,19.26 Z M33.21,14.3 C33.21,15.88875 32.167625,17.23725 30.73,17.6945 L30.73,9.65 L33.21,9.65 L33.21,14.3 Z" id="形状"></path>
        </g>
    </g>
</svg>