<?xml version="1.0" encoding="UTF-8"?>
<svg width="40px" height="40px" viewBox="0 0 40 40" version="1.1" xmlns="http://www.w3.org/2000/svg" xmlns:xlink="http://www.w3.org/1999/xlink">
    <title>icon/平均处理时长</title>
    <g id="icon/平均处理时长" stroke="none" stroke-width="1" fill="none" fill-rule="evenodd">
        <g id="file-sync" fill="#000000" fill-rule="nonzero">
            <rect id="矩形" opacity="0" x="0" y="0" width="40" height="40"></rect>
            <path d="M11.5625,10 C11.390625,10 11.25,10.140625 11.25,10.3125 L11.25,12.1875 C11.25,12.359375 11.390625,12.5 11.5625,12.5 L26.5625,12.5 C26.734375,12.5 26.875,12.359375 26.875,12.1875 L26.875,10.3125 C26.875,10.140625 26.734375,10 26.5625,10 L11.5625,10 Z M19.0625,17.8125 L19.0625,15.9375 C19.0625,15.765625 18.921875,15.625 18.75,15.625 L11.5625,15.625 C11.390625,15.625 11.25,15.765625 11.25,15.9375 L11.25,17.8125 C11.25,17.984375 11.390625,18.125 11.5625,18.125 L18.75,18.125 C18.921875,18.125 19.0625,17.984375 19.0625,17.8125 Z M17.1875,33.28125 L8.125,33.28125 L8.125,5.78125 L30,5.78125 L30,19.21875 C30,19.390625 30.140625,19.53125 30.3125,19.53125 L32.5,19.53125 C32.671875,19.53125 32.8125,19.390625 32.8125,19.21875 L32.8125,4.21875 C32.8125,3.52734375 32.2539062,2.96875 31.5625,2.96875 L6.5625,2.96875 C5.87109375,2.96875 5.3125,3.52734375 5.3125,4.21875 L5.3125,34.84375 C5.3125,35.5351562 5.87109375,36.09375 6.5625,36.09375 L17.1875,36.09375 C17.359375,36.09375 17.5,35.953125 17.5,35.78125 L17.5,33.59375 C17.5,33.421875 17.359375,33.28125 17.1875,33.28125 Z M21.2539062,28.765625 C21.3242188,27.4179688 21.8867188,26.15625 22.8476562,25.1953125 C23.8710938,24.171875 25.2695312,23.59375 26.71875,23.59375 C28.1796875,23.59375 29.5546875,24.1640625 30.5898438,25.1953125 C30.7148438,25.3203125 30.8359375,25.453125 30.9492188,25.5898438 L30.046875,26.2890625 C29.8398438,26.4492188 29.9101562,26.7773438 30.1640625,26.8398438 L33.8085938,27.71875 C34.0039062,27.765625 34.1914062,27.6171875 34.1953125,27.4179688 L34.21875,23.6914062 C34.21875,23.4296875 33.921875,23.28125 33.7148438,23.4414062 L32.921875,24.0585938 C31.4609375,22.25 29.2226562,21.09375 26.71875,21.09375 C22.4257812,21.09375 18.921875,24.4882812 18.75,28.7382812 C18.7421875,28.9140625 18.8867188,29.0625 19.0625,29.0625 L20.9414062,29.0625 C21.109375,29.0625 21.2460938,28.9335938 21.2539062,28.765625 Z M34.375,29.0625 L32.4960938,29.0625 C32.328125,29.0625 32.1914062,29.1914062 32.1835938,29.359375 C32.1132812,30.7070312 31.5507812,31.96875 30.5898438,32.9296875 C29.5664062,33.953125 28.1679688,34.53125 26.71875,34.53125 C25.2578125,34.53125 23.8828125,33.9609375 22.8476562,32.9296875 C22.7226562,32.8046875 22.6015625,32.671875 22.4882812,32.5351562 L23.390625,31.8359375 C23.5976562,31.6757812 23.5273438,31.3476562 23.2734375,31.2851562 L19.6289062,30.40625 C19.4335938,30.359375 19.2460938,30.5078125 19.2421875,30.7070312 L19.21875,34.4335938 C19.21875,34.6953125 19.515625,34.84375 19.7226562,34.6835938 L20.515625,34.0664062 C21.9765625,35.875 24.2148438,37.03125 26.71875,37.03125 C31.0117188,37.03125 34.515625,33.6367188 34.6875,29.3867188 C34.6953125,29.2109375 34.5507812,29.0625 34.375,29.0625 Z" id="形状"></path>
        </g>
    </g>
</svg>