<?xml version="1.0" encoding="UTF-8"?>
<svg width="40px" height="40px" viewBox="0 0 40 40" version="1.1" xmlns="http://www.w3.org/2000/svg" xmlns:xlink="http://www.w3.org/1999/xlink">
    <title>icon/44+#fff/抽屉</title>
    <g id="icon/44+#fff//抽屉" stroke="none" stroke-width="1" fill="none" fill-rule="evenodd">
        <g id="menu" fill="#000000" fill-rule="nonzero">
            <rect id="矩形" opacity="0" x="0" y="0" width="40" height="40"></rect>
            <path d="M35.69,7 L5.31,7 C5.1395,7 5,7.13806818 5,7.30681818 L5,9.76136364 C5,9.93011364 5.1395,10.0681818 5.31,10.0681818 L35.69,10.0681818 C35.8605,10.0681818 36,9.93011364 36,9.76136364 L36,7.30681818 C36,7.13806818 35.8605,7 35.69,7 Z M35.69,30.9318182 L5.31,30.9318182 C5.1395,30.9318182 5,31.0698864 5,31.2386364 L5,33.6931818 C5,33.8619318 5.1395,34 5.31,34 L35.69,34 C35.8605,34 36,33.8619318 36,33.6931818 L36,31.2386364 C36,31.0698864 35.8605,30.9318182 35.69,30.9318182 Z M35.69,18.9659091 L5.31,18.9659091 C5.1395,18.9659091 5,19.1039773 5,19.2727273 L5,21.7272727 C5,21.8960227 5.1395,22.0340909 5.31,22.0340909 L35.69,22.0340909 C35.8605,22.0340909 36,21.8960227 36,21.7272727 L36,19.2727273 C36,19.1039773 35.8605,18.9659091 35.69,18.9659091 Z" id="形状"></path>
        </g>
    </g>
</svg>