<?xml version="1.0" encoding="UTF-8"?>
<svg width="40px" height="40px" viewBox="0 0 40 40" version="1.1" xmlns="http://www.w3.org/2000/svg" xmlns:xlink="http://www.w3.org/1999/xlink">
    <title>icon/退出</title>
    <g id="icon/退出" stroke="none" stroke-width="1" fill="none" fill-rule="evenodd">
        <g id="setup" fill="#000000" fill-rule="nonzero">
            <rect id="矩形" opacity="0" x="0" y="0" width="40" height="40"></rect>
            <path d="M6.21268442,19.9848327 L11.9977261,14.2122107 C12.281284,13.9292631 12.7410807,13.9292631 13.0247988,14.2122107 L14.1941627,15.3790257 C14.4777206,15.6619733 14.4777206,16.1209402 14.1941627,16.4038877 L11.642302,18.9502558 L23.2739394,18.9502558 C23.6749365,18.9502558 24,19.2746197 24,19.6747536 L24,21.3250786 C24,21.7253085 23.6749365,22.0497362 23.2739394,22.0497362 L11.6479066,22.0497362 L14.1997673,24.5961043 C14.4833251,24.8790519 14.4833251,25.3380187 14.1997673,25.6209663 L13.0302752,26.7878133 C12.7467173,27.0707289 12.2868245,27.0707289 12.0032667,26.7878133 L6.21255632,21.0095668 C5.95746952,20.7548565 5.93196085,20.3577776 6.13612366,20.0746402 L6.21268442,19.9848327 Z M16.1785974,6 L31.8214026,6 C33.0245426,6 34,6.97611774 34,8.18007214 L34,31.8199279 C34,33.0240425 33.0245426,34 31.8214026,34 L16.1785974,34 C14.9754574,34 14,33.0240425 14,31.8199279 L14,28.75261 C14,28.351356 14.3250777,28.0258659 14.7262525,28.0258659 L16.3003014,28.0258659 C16.701316,28.0258659 17.0265859,28.351356 17.0265859,28.75261 L17.0273019,30.1762753 C17.0348196,30.9946329 17.1212727,30.9946329 18.1154843,30.9946329 L30.2877892,30.9922223 C30.9323503,30.9777393 30.9968064,30.8762406 31.003252,30.1649249 L31.0033004,9.80915967 C30.9967888,9.05680669 30.9268213,8.98725362 30.17541,8.98082948 L17.7425199,8.98295933 C17.0264484,9.00049719 17.0266179,9.12819293 17.0266179,10.0553578 L17.0266179,11.256556 C17.0266179,11.6579382 16.701348,11.9833001 16.3003334,11.9833001 L14.7262845,11.9833001 C14.3251098,11.9833001 14,11.6579382 14,11.256556 L14,8.18007214 C14,7.02846358 14.892479,6.0853105 16.0230188,6.00547414 L16.1785974,6 Z" id="形状"></path>
        </g>
    </g>
</svg>