<?xml version="1.0" encoding="UTF-8"?>
<svg width="40px" height="40px" viewBox="0 0 40 40" version="1.1" xmlns="http://www.w3.org/2000/svg" xmlns:xlink="http://www.w3.org/1999/xlink">
    <title>icon/历史记录</title>
    <g id="icon/历史记录" stroke="none" stroke-width="1" fill="none" fill-rule="evenodd">
        <g id="reconciliation" fill="#000000" fill-rule="nonzero">
            <rect id="矩形" opacity="0" x="0" y="0" width="40" height="40"></rect>
            <path d="M32.11,7.17 L23.895,7.17 C23.895,5.972625 22.922375,5 21.725,5 L18.625,5 C17.427625,5 16.455,5.972625 16.455,7.17 L8.24,7.17 C7.554125,7.17 7,7.724125 7,8.41 L7,32.9 C7,33.585875 7.664125,34.14 8.35,34.14 L32.11,34.14 C32.795875,34.14 33.35,33.585875 33.35,32.9 L33.35,8.41 C33.35,7.724125 32.795875,7.17 32.11,7.17 Z M16.145,9.65 L18.935,9.65 L18.935,7.48 L21.415,7.48 L21.415,9.65 L24.205,9.65 L24.205,11.51 L16.145,11.51 L16.145,9.65 Z M13.665,9.96 L13.665,13.99 L26.685,13.99 L26.685,9.96 L30.56,9.96 L30.56,31.35 L9.79,31.35 L9.79,9.96 L13.665,9.96 Z M20,16 C16.1340068,16 13,19.1340068 13,23 C13,26.8659932 16.1340068,30 20,30 C23.8659932,30 27,26.8659932 27,23 C27,19.1340068 23.8659932,16 20,16 Z M20,18 C22.7614237,18 25,20.2385763 25,23 C25,25.7614237 22.7614237,28 20,28 C17.2385763,28 15,25.7614237 15,23 C15,20.2385763 17.2385763,18 20,18 Z M18.836593,24.2485217 L18.874551,24.2803112 L18.9514518,24.3362537 L18.9514518,24.3362537 L19,24.3660254 L21.5980762,25.8660254 L21.7024369,25.9185096 C22.1620274,26.1171529 22.7076837,25.9441289 22.9641016,25.5 C23.2205195,25.0558711 23.0975346,24.4968069 22.6957092,24.1981115 L22.5980762,24.1339746 L20.5,22.922 L20.5,20.5 L20.4932723,20.3833789 C20.4355072,19.8860402 20.0128358,19.5 19.5,19.5 C18.9871642,19.5 18.5644928,19.8860402 18.5067277,20.3833789 L18.5,20.5 L18.4999083,23.5113293 L18.5127262,23.659289 L18.5127262,23.659289 L18.5319409,23.75169 L18.5319409,23.75169 L18.5729348,23.875102 L18.5729348,23.875102 L18.6067309,23.9500034 L18.6067309,23.9500034 L18.6489443,24.0253411 L18.6489443,24.0253411 L18.6946373,24.0932083 L18.6946373,24.0932083 L18.7495843,24.1613772 L18.7495843,24.1613772 L18.836593,24.2485217 L18.836593,24.2485217 Z" id="形状"></path>
        </g>
    </g>
</svg>