<?xml version="1.0" encoding="UTF-8"?>
<svg width="40px" height="40px" viewBox="0 0 40 40" version="1.1" xmlns="http://www.w3.org/2000/svg" xmlns:xlink="http://www.w3.org/1999/xlink">
    <title>icon/收入</title>
    <g id="icon/收入" stroke="none" stroke-width="1" fill="none" fill-rule="evenodd">
        <g id="Dollar" fill="#000000" fill-rule="nonzero">
            <rect id="矩形" opacity="0" x="0" y="0" width="40" height="40"></rect>
            <path d="M20,2.5 C10.3359375,2.5 2.5,10.3359375 2.5,20 C2.5,29.6640625 10.3359375,37.5 20,37.5 C29.6640625,37.5 37.5,29.6640625 37.5,20 C37.5,10.3359375 29.6640625,2.5 20,2.5 Z M20,34.53125 C11.9765625,34.53125 5.46875,28.0234375 5.46875,20 C5.46875,11.9765625 11.9765625,5.46875 20,5.46875 C28.0234375,5.46875 34.53125,11.9765625 34.53125,20 C34.53125,28.0234375 28.0234375,34.53125 20,34.53125 Z M21.8632812,19.09375 L20.8710938,18.8632812 L20.8710938,13.6171875 C22.3554688,13.8203125 23.2734375,14.75 23.4296875,15.890625 C23.4492188,16.046875 23.5820312,16.1601562 23.7382812,16.1601562 L25.4921875,16.1601562 C25.6757812,16.1601562 25.8203125,16 25.8046875,15.8164062 C25.5664062,13.3828125 23.5625,11.8203125 20.8867188,11.5507812 L20.8867188,10.2734375 C20.8867188,10.1015625 20.7460938,9.9609375 20.5742188,9.9609375 L19.4765625,9.9609375 C19.3046875,9.9609375 19.1640625,10.1015625 19.1640625,10.2734375 L19.1640625,11.5625 C16.3984375,11.8320312 14.234375,13.359375 14.234375,16.2109375 C14.234375,18.8515625 16.1796875,20.125 18.2226562,20.6132812 L19.1875,20.859375 L19.1875,26.4335938 C17.4609375,26.203125 16.4921875,25.28125 16.2929688,24.0390625 C16.2695312,23.890625 16.1367188,23.78125 15.984375,23.78125 L14.1796875,23.78125 C13.9960938,23.78125 13.8515625,23.9375 13.8671875,24.1210938 C14.0429688,26.2695313 15.671875,28.2460938 19.1484375,28.5 L19.1484375,29.7265625 C19.1484375,29.8984375 19.2890625,30.0390625 19.4609375,30.0390625 L20.5703125,30.0390625 C20.7421875,30.0390625 20.8828125,29.8984375 20.8828125,29.7226562 L20.875,28.484375 C23.9335937,28.2148437 26.1210938,26.578125 26.1210938,23.640625 C26.1171875,20.9296875 24.3945312,19.71875 21.8632812,19.09375 Z M19.1835938,18.4609375 C18.9648438,18.3984375 18.78125,18.3398438 18.5976562,18.265625 C17.2773438,17.7890625 16.6640625,17.0195312 16.6640625,16.0273438 C16.6640625,14.609375 17.7382812,13.8007812 19.1835938,13.6171875 L19.1835938,18.4609375 Z M20.8710938,26.4453125 L20.8710938,21.2226562 C20.9921875,21.2578125 21.1015625,21.2851562 21.2148438,21.3085938 C23.0625,21.8710938 23.6835938,22.6523438 23.6835938,23.8515625 C23.6835938,25.3789062 22.5351562,26.296875 20.8710938,26.4453125 Z" id="形状"></path>
        </g>
    </g>
</svg>