<?xml version="1.0" encoding="UTF-8"?>
<svg width="40px" height="40px" viewBox="0 0 40 40" version="1.1" xmlns="http://www.w3.org/2000/svg" xmlns:xlink="http://www.w3.org/1999/xlink">
    <title>icon/送餐</title>
    <g id="icon/送餐" stroke="none" stroke-width="1" fill="none" fill-rule="evenodd">
        <g fill-rule="nonzero">
            <rect id="矩形" fill="#000000" opacity="0" x="0" y="0" width="40" height="40"></rect>
            <path d="M20.2496875,37.2110156 C19.9595703,37.2110156 19.6833594,37.1186719 19.4510156,36.9439844 C16.7941797,34.9468359 10.386875,29.9788672 8.27574219,26.9879297 C6.52390625,24.5058984 5.59792969,21.5811719 5.59792969,18.53 C5.59792969,16.5488281 5.98515625,14.6274609 6.74886719,12.8192969 C7.48667969,11.0723828 8.543125,9.50328125 9.88882812,8.15566406 C11.2344141,6.808125 12.8010547,5.75023437 14.5452344,5.01148437 C16.3503906,4.246875 18.2685156,3.85917969 20.2462891,3.85917969 C24.1643359,3.85917969 27.8424219,5.37894531 30.6029687,8.13855469 C33.3639062,10.8985547 34.888125,14.5798047 34.894827,18.5041797 C34.8998047,21.4023438 34.0625391,24.2060156 32.4735937,26.6121875 C30.3868359,29.7719141 23.7859766,34.8915625 21.0448437,36.9460547 C20.8135156,37.1193359 20.5385547,37.2110156 20.2496875,37.2110156 Z" id="路径" fill="#FFFFFF"></path>
            <path d="M20.2462891,4.83570312 C22.0965234,4.83570312 23.8882031,5.19578125 25.5715234,5.90597656 C27.1981641,6.59222656 28.6586719,7.57574219 29.9125391,8.82917969 C31.1666016,10.0828125 32.1514453,11.5439844 32.8397656,13.1721484 C33.5522266,14.8574219 33.9150781,16.6519141 33.9182241,18.5058594 C33.9228906,21.2114844 33.1415234,23.8285156 31.6586719,26.0739453 C30.269375,28.1775391 26.0826172,31.9497266 20.4592187,36.1645312 C20.3988509,36.2100303 20.3252813,36.2344536 20.2496875,36.2344536 C20.1731511,36.2344536 20.098694,36.2095478 20.0376953,36.1633203 C18.5534375,35.0476172 16.3343359,33.3344141 14.1914062,31.5085937 C11.0200391,28.8065625 9.6578125,27.2526172 9.07355469,26.4248828 C7.43863281,24.1084375 6.57445312,21.3784375 6.57445312,18.53 C6.57445312,16.6800781 6.93578125,14.8865234 7.6484375,13.1992187 C8.33710937,11.5686719 9.32335937,10.1039062 10.5798047,8.84566406 C11.8360547,7.58761719 13.2983594,6.60011719 14.9260547,5.91066406 C16.6101172,5.19734375 18.4000781,4.83570312 20.2462891,4.83570312 M20.2462891,2.88257812 C11.6167969,2.88257812 4.62136719,9.88816406 4.62136719,18.53 C4.62136719,21.889375 5.67851562,25.0016797 7.47789062,27.5511328 C9.6534375,30.6333203 16.0319141,35.5955469 18.8641797,37.7245703 C19.2635287,38.0252363 19.749886,38.1875784 20.2497656,38.1875784 C20.7477124,38.1875784 21.232269,38.0263351 21.6305469,37.7274609 C24.5251172,35.5579688 31.1287109,30.4205469 33.2884766,27.1502734 C34.9255859,24.67125 35.876875,21.6982422 35.871391,18.5024609 C35.8566016,9.85 28.8864844,2.88257812 20.2462891,2.88257812 L20.2462891,2.88257812 Z" id="形状" fill="#FFA328"></path>
            <path d="M20.2464453,10.6467187 C24.3733984,10.6467187 27.7191797,13.9924219 27.7191797,18.1195312 C27.7191797,22.2467187 24.3733984,25.5924219 20.2464453,25.5924219 C16.1192578,25.5924219 12.7734766,22.2467187 12.7734766,18.1195312 C12.7734766,13.9924609 16.1192969,10.6467187 20.2464453,10.6467187 Z" id="路径" fill="#FFA328"></path>
        </g>
    </g>
</svg>