<?xml version="1.0" encoding="UTF-8"?>
<svg width="40px" height="40px" viewBox="0 0 40 40" version="1.1" xmlns="http://www.w3.org/2000/svg" xmlns:xlink="http://www.w3.org/1999/xlink">
    <title>icon/位置</title>
    <g id="icon/位置" stroke="none" stroke-width="1" fill="none" fill-rule="evenodd">
        <g id="系统-位置配置">
            <rect id="矩形" fill="#000000" fill-rule="nonzero" opacity="0" x="0" y="0" width="40" height="40"></rect>
            <g id="编组-2" transform="translate(6.000000, 1.000000)">
                <path d="M14,0 L24.0099235,16.379359 C24.1711091,16.6225708 24.3236678,16.8719978 24.4671633,17.1272033 L25,18 L24.9118311,17.999816 C25.6104819,19.521977 26,21.2155001 26,23 C26,29.627417 20.627417,35 14,35 C7.372583,35 2,29.627417 2,23 C2,21.2155001 2.38951806,19.521977 3.08816889,17.999816 L3,18 L3.52333338,17.144137 C3.67137287,16.8798481 3.82912317,16.6217339 3.99610106,16.3702775 L14,0 Z" id="路径" fill="#597EF7"></path>
                <path d="M14,9 C21.7319865,9 28,15.2680135 28,23 C28,30.7319865 21.7319865,37 14,37 C6.2680135,37 0,30.7319865 0,23 C0,15.2680135 6.2680135,9 14,9 Z M14,11 C7.372583,11 2,16.372583 2,23 C2,29.627417 7.372583,35 14,35 C20.627417,35 26,29.627417 26,23 C26,16.372583 20.627417,11 14,11 Z" id="形状" fill="#FFFFFF"></path>
            </g>
        </g>
    </g>
</svg>