<?xml version="1.0" encoding="UTF-8"?>
<svg width="256px" height="256px" viewBox="0 0 256 256" version="1.1" xmlns="http://www.w3.org/2000/svg" xmlns:xlink="http://www.w3.org/1999/xlink">
    <title>icon调度备份</title>
    <g id="icon调度备份" stroke="none" stroke-width="1" fill="none" fill-rule="evenodd">
        <path d="M128,28 C148.496502,28 167.552751,34.1664507 183.414753,44.7453557 L129.135264,78.0126342 C128.75786,78.0042262 128.379423,78 128,78 L80,78 L80,125.68 L147.70525,80.9945 L192.400535,51.4949807 L192.401,51.49525 L228,28 L28,228 L28,28 L128,28 Z M206.153594,66 C219.82549,83.0620387 228,104.699389 228,128.241389 C228,183.336549 183.228475,228 128,228 L60,228 L105,178.120695 L128,178.120695 C155.614237,178.120695 178,155.788969 178,128.241389 C178,119.488463 175.739984,111.262117 171.770326,104.111398 L206.153594,66 Z" id="形状" fill="#FFFFFF"></path>
    </g>
</svg>