<?xml version="1.0" encoding="UTF-8"?>
<svg width="48px" height="48px" viewBox="0 0 48 48" version="1.1" xmlns="http://www.w3.org/2000/svg" xmlns:xlink="http://www.w3.org/1999/xlink">
    <title>icon/取餐备份 6</title>
    <g id="页面-1" stroke="none" stroke-width="1" fill="none" fill-rule="evenodd">
        <g id="任务页" transform="translate(-500.000000, -742.000000)" fill-rule="nonzero">
            <g id="编组" transform="translate(126.000000, 252.000000)">
                <g id="icon/取餐备份-6" transform="translate(374.000000, 490.000000)">
                    <g id="icon/取餐">
                        <rect id="矩形" fill="#000000" opacity="0" x="0" y="0" width="48" height="48"></rect>
                        <path d="M24.2158154,43.1884072 C23.8749277,43.1884072 23.5503799,43.0799033 23.277376,42.8746455 C20.1555938,40.5279961 12.6270107,34.6906328 10.1464297,31.1762813 C8.08802246,28.2598945 7,24.8233408 7,21.2382139 C7,18.9103369 7.45499121,16.6527305 8.35235156,14.5281377 C9.21928125,12.4755137 10.4606045,10.6318193 12.0418057,9.04836914 C13.6228691,7.46501074 15.4636719,6.22198926 17.513083,5.35395801 C19.6341416,4.45554199 21.8879385,4 24.2118223,4 C28.8155273,4 33.1372783,5.78572461 36.3809209,9.02826562 C39.6250225,12.2712656 41.4159795,16.5967344 41.4238543,21.207875 C41.4297031,24.6132178 40.445916,27.9075322 38.5789053,30.7347842 C36.1269648,34.4474629 28.3709551,40.4630498 25.150124,42.8770781 C24.8783135,43.0806836 24.5552344,43.1884072 24.2158154,43.1884072 Z" id="路径" fill="#FFFFFF"></path>
                        <path d="M24.3592832,3 C34.5115127,3 42.7014004,11.1867207 42.7187779,21.3533623 C42.7252217,25.1084053 41.607457,28.6016895 39.6838535,31.514542 C37.1461289,35.3571133 29.3869062,41.393584 25.9857861,43.9427373 C25.5178096,44.2939145 24.9484556,44.4833753 24.3633682,44.4833753 C23.7760097,44.4833753 23.2045397,44.2926233 22.7353047,43.9393408 C19.4073926,41.4377383 11.9126826,35.6071221 9.35641504,31.9855518 C7.24214941,28.9899443 6,25.3329863 6,21.3857207 C6,11.2315635 14.2196299,3 24.3592832,3 Z" id="形状" fill="#597EF7"></path>
                    </g>
                </g>
            </g>
        </g>
    </g>
</svg>