<?xml version="1.0" encoding="UTF-8"?>
<svg width="52px" height="64px" viewBox="0 0 52 64" version="1.1" xmlns="http://www.w3.org/2000/svg" xmlns:xlink="http://www.w3.org/1999/xlink">
    <title>icon/高德导航</title>
    <g id="页面-1" stroke="none" stroke-width="1" fill="none" fill-rule="evenodd">
        <g id="任务页" transform="translate(-541.000000, -1189.000000)">
            <g id="icon/高德导航" transform="translate(535.000000, 1189.000000)">
                <g>
                    <rect id="矩形" x="0" y="0" width="64" height="64"></rect>
                    <path d="M25.2972141,0.440397962 C25.4219653,0.53817491 25.534851,0.64993546 25.6336124,0.773443184 L41.8154189,21.0098857 C42.1684154,21.4513316 42.0931101,22.0925022 41.6472198,22.4419802 C41.4073087,22.6300168 41.0953557,22.7026796 40.795928,22.6402705 L31.2263323,20.6452182 L31.2270128,62.9805334 C31.2270128,63.5435693 30.7659869,64 30.1972826,64 L17.8405193,64 C17.2718149,64 16.810789,63.5435693 16.810789,62.9805334 L16.8101084,20.6452182 L7.24187382,22.6402705 C6.68536832,22.7562618 6.1392553,22.4036511 6.02209625,21.8526925 C5.95905885,21.5562493 6.0324532,21.2474056 6.22238287,21.0098857 L22.4041895,0.773443184 C23.1101824,-0.109448642 24.4054336,-0.258558067 25.2972141,0.440397962 Z M58,30.3576021 L58,41.5717347 C47.7026972,41.5717347 39.8080985,44.9699567 34.3162037,51.7664008 L34.3162037,37.4938683 C40.4945853,32.7363575 48.3891841,30.3576021 58,30.3576021 Z" id="形状" fill="#597EF7"></path>
                </g>
            </g>
        </g>
    </g>
</svg>