<?xml version="1.0" encoding="UTF-8"?>
<svg width="40px" height="40px" viewBox="0 0 40 40" version="1.1" xmlns="http://www.w3.org/2000/svg" xmlns:xlink="http://www.w3.org/1999/xlink">
    <title>icon/44+#fff/新消息</title>
    <g id="icon/44+#fff//新消息" stroke="none" stroke-width="1" fill="none" fill-rule="evenodd">
        <g id="bell-fill" fill="#000000" fill-rule="nonzero">
            <rect id="矩形" opacity="0" x="0" y="0" width="40" height="40"></rect>
            <path d="M31.7619048,30.6818182 L30.8333333,30.6818182 L30.8333333,17.1590909 C30.8333333,11.5471591 26.7979167,6.90568182 21.547619,6.13409091 L21.547619,4.59090909 C21.547619,3.71193182 20.8550595,3 20,3 C19.1449405,3 18.452381,3.71193182 18.452381,4.59090909 L18.452381,6.13409091 C13.2020833,6.90568182 9.16666667,11.5471591 9.16666667,17.1590909 L9.16666667,30.6818182 L8.23809524,30.6818182 C7.55327381,30.6818182 7,31.2505682 7,31.9545455 L7,33.2272727 C7,33.4022727 7.13928571,33.5454545 7.30952381,33.5454545 L15.6666667,33.5454545 C15.6666667,36.0034091 17.6089286,38 20,38 C22.3910714,38 24.3333333,36.0034091 24.3333333,33.5454545 L32.6904762,33.5454545 C32.8607143,33.5454545 33,33.4022727 33,33.2272727 L33,31.9545455 C33,31.2505682 32.4467262,30.6818182 31.7619048,30.6818182 Z M20,35.4545455 C18.9747024,35.4545455 18.1428571,34.5994318 18.1428571,33.5454545 L21.8571429,33.5454545 C21.8571429,34.5994318 21.0252976,35.4545455 20,35.4545455 Z" id="形状"></path>
        </g>
    </g>
</svg>