<?xml version="1.0" encoding="UTF-8"?>
<svg width="40px" height="40px" viewBox="0 0 40 40" version="1.1" xmlns="http://www.w3.org/2000/svg" xmlns:xlink="http://www.w3.org/1999/xlink">
    <title>icon/消息</title>
    <g id="icon/消息" stroke="none" stroke-width="1" fill="none" fill-rule="evenodd">
        <g id="bell" fill="#000000" fill-rule="nonzero">
            <rect id="矩形" opacity="0" x="0" y="0" width="40" height="40"></rect>
            <path d="M31.7619048,29.8909091 L30.8333333,29.8909091 L30.8333333,16.7545455 C30.8333333,11.3029545 26.7979167,6.79795455 21.547619,6.04840909 L21.547619,4.54545455 C21.547619,3.69159091 20.8550595,3 20,3 C19.1449405,3 18.452381,3.69159091 18.452381,4.54545455 L18.452381,6.04840909 C13.2020833,6.79795455 9.16666667,11.3029545 9.16666667,16.7545455 L9.16666667,29.8909091 L8.23809524,29.8909091 C7.55327381,29.8909091 7,30.4434091 7,31.1272727 L7,32.3636364 C7,32.5336364 7.13928571,32.6727273 7.30952381,32.6727273 L15.6666667,32.6727273 C15.6666667,35.0604545 17.6089286,37 20,37 C22.3910714,37 24.3333333,35.0604545 24.3333333,32.6727273 L32.6904762,32.6727273 C32.8607143,32.6727273 33,32.5336364 33,32.3636364 L33,31.1272727 C33,30.4434091 32.4467262,29.8909091 31.7619048,29.8909091 Z M20,34.5272727 C18.9747024,34.5272727 18.1428571,33.6965909 18.1428571,32.6727273 L21.8571429,32.6727273 C21.8571429,33.6965909 21.0252976,34.5272727 20,34.5272727 Z M11.952381,29.8909091 L11.952381,16.7545455 C11.952381,14.6063636 12.7880952,12.5895455 14.308631,11.0711364 C15.8291667,9.55272727 17.8488095,8.71818182 20,8.71818182 C22.1511905,8.71818182 24.1708333,9.55272727 25.691369,11.0711364 C27.2119048,12.5895455 28.047619,14.6063636 28.047619,16.7545455 L28.047619,29.8909091 L11.952381,29.8909091 Z" id="形状"></path>
        </g>
    </g>
</svg>