<?xml version="1.0" encoding="UTF-8"?>
<svg width="40px" height="40px" viewBox="0 0 40 40" version="1.1" xmlns="http://www.w3.org/2000/svg" xmlns:xlink="http://www.w3.org/1999/xlink">
    <title>icon/订单</title>
    <g id="icon/订单" stroke="none" stroke-width="1" fill="none" fill-rule="evenodd">
        <g id="file-done" fill="#000000" fill-rule="nonzero">
            <rect id="矩形" opacity="0" x="0" y="0" width="40" height="40"></rect>
            <path d="M27.287234,12.2018349 L27.287234,10.3302752 C27.287234,10.1587156 27.1484043,10.0183486 26.9787234,10.0183486 L12.1702128,10.0183486 C12.0005319,10.0183486 11.8617021,10.1587156 11.8617021,10.3302752 L11.8617021,12.2018349 C11.8617021,12.3733945 12.0005319,12.5137615 12.1702128,12.5137615 L26.9787234,12.5137615 C27.1484043,12.5137615 27.287234,12.3733945 27.287234,12.2018349 Z M12.1702128,15.6330275 C12.0005319,15.6330275 11.8617021,15.7733945 11.8617021,15.9449541 L11.8617021,17.8165138 C11.8617021,17.9880734 12.0005319,18.1284404 12.1702128,18.1284404 L19.2659574,18.1284404 C19.4356383,18.1284404 19.5744681,17.9880734 19.5744681,17.8165138 L19.5744681,15.9449541 C19.5744681,15.7733945 19.4356383,15.6330275 19.2659574,15.6330275 L12.1702128,15.6330275 Z M26.6702128,20.1559633 C22.0695479,20.1559633 18.3404255,23.9263761 18.3404255,28.5779817 C18.3404255,33.2295872 22.0695479,37 26.6702128,37 C31.2708777,37 35,33.2295872 35,28.5779817 C35,23.9263761 31.2708777,20.1559633 26.6702128,20.1559633 Z M30.8158245,32.7694954 C29.7090426,33.8885321 28.2359043,34.5045872 26.6702128,34.5045872 C25.1045213,34.5045872 23.631383,33.8885321 22.5246011,32.7694954 C21.4178191,31.6504587 20.8085106,30.1610092 20.8085106,28.5779817 C20.8085106,26.9949541 21.4178191,25.5055046 22.5246011,24.3864679 C23.631383,23.2674312 25.1045213,22.6513761 26.6702128,22.6513761 C28.2359043,22.6513761 29.7090426,23.2674312 30.8158245,24.3864679 C31.9226064,25.5055046 32.5319149,26.9949541 32.5319149,28.5779817 C32.5319149,30.1610092 31.9226064,31.6504587 30.8158245,32.7694954 Z M30.1023936,25.6146789 L28.394016,25.6146789 C28.29375,25.6146789 28.2011968,25.6614679 28.1433511,25.7433486 L25.6945479,29.1667431 L24.8037234,27.9229358 C24.7458777,27.841055 24.6533245,27.7942661 24.5530585,27.7942661 L22.8523936,27.7942661 C22.6017287,27.7942661 22.4551862,28.0827982 22.6017287,28.2894495 L25.4477394,32.2704128 C25.5711436,32.4419725 25.8218085,32.4419725 25.9452128,32.2704128 L30.3492021,26.1098624 C30.4996011,25.903211 30.3530585,25.6146789 30.1023936,25.6146789 Z M17.7234043,33.2568807 L8.77659574,33.2568807 L8.77659574,5.80733945 L30.3723404,5.80733945 L30.3723404,19.2201835 C30.3723404,19.3917431 30.5111702,19.5321101 30.6808511,19.5321101 L32.8404255,19.5321101 C33.0101064,19.5321101 33.1489362,19.3917431 33.1489362,19.2201835 L33.1489362,4.24770642 C33.1489362,3.55756881 32.5974734,3 31.9148936,3 L7.23404255,3 C6.55146277,3 6,3.55756881 6,4.24770642 L6,34.8165138 C6,35.5066514 6.55146277,36.0642202 7.23404255,36.0642202 L17.7234043,36.0642202 C17.8930851,36.0642202 18.0319149,35.9238532 18.0319149,35.7522936 L18.0319149,33.5688073 C18.0319149,33.3972477 17.8930851,33.2568807 17.7234043,33.2568807 Z" id="形状"></path>
        </g>
    </g>
</svg>