<?xml version="1.0" encoding="UTF-8"?>
<svg width="40px" height="40px" viewBox="0 0 40 40" version="1.1" xmlns="http://www.w3.org/2000/svg" xmlns:xlink="http://www.w3.org/1999/xlink">
    <title>icon/路线</title>
    <g id="icon/路线" stroke="none" stroke-width="1" fill="none" fill-rule="evenodd">
        <g id="客户方向路线" fill-rule="nonzero">
            <rect id="矩形" fill="#000000" opacity="0" x="0" y="0" width="40" height="40"></rect>
            <path d="M30.75,1.25 L22.5,11.25 L28,11.25 L28,18.5 L15.75,18.5 L15.75,35 L21.25,35 L21.25,24 L33.5,24 L33.5,11.25 L39,11.25 L30.75,1.25 Z M7.25,20.5 C3.75,20.5 0.75,23.5 0.75,27.5 C0.75,29.5 1.5,31.25 2.75,32.25 L7,36.75 C7.25,37 7.75,37 7.75,36.75 L12,32.25 C13.25,31 14,29.25 14,27.5 C14,23.5 11,20.5 7.25,20.5 Z M7.25,29.5 C5.75,29.5 4.75,28.5 4.75,27 C4.75,25.5 6,24.5 7.25,24.5 C8.75,24.5 9.75,25.5 9.75,27 C9.75,28.5 8.75,29.5 7.25,29.5 Z" id="形状" fill="#060001"></path>
        </g>
    </g>
</svg>