<?xml version="1.0" encoding="UTF-8"?>
<svg width="40px" height="40px" viewBox="0 0 40 40" version="1.1" xmlns="http://www.w3.org/2000/svg" xmlns:xlink="http://www.w3.org/1999/xlink">
    <title>icon/电话</title>
    <g id="icon/电话" stroke="none" stroke-width="1" fill="none" fill-rule="evenodd">
        <g id="电话" fill="#000000" fill-rule="nonzero">
            <rect id="矩形" opacity="0" x="0" y="0" width="40" height="40"></rect>
            <path d="M19.8993125,4.8195625 C11.4914063,4.8195625 4.651125,11.6599688 4.651125,20.0678125 C4.651125,28.4756562 11.4914688,35.316 19.8993125,35.316 C28.3071563,35.316 35.1475,28.4760937 35.1475,20.0681875 C35.1475,11.6602813 28.3071563,4.8195625 19.8993125,4.8195625 L19.8993125,4.8195625 Z M25.4762813,28.0490625 C20.07725,28.0490625 12.0533438,19.485 12.0533438,14.9866563 C12.0533438,13.18825 13.6038438,11.971375 14.8979375,11.971375 C16.2662813,11.971375 18.5984063,15.9175938 18.5984063,16.7521875 C18.5984063,17.340125 18.3445313,17.756125 18.141,18.0906563 C17.9826875,18.3500625 17.8892813,18.5121875 17.8790313,18.6990938 C18.0889688,19.3557188 20.5456875,21.8052188 21.2394688,22.0518125 C21.4238125,22.035625 21.6571563,21.914 21.9038125,21.7855938 C22.290375,21.5841875 22.7716563,21.3333125 23.359625,21.3333125 C24.2995625,21.3333125 28.3205001,23.9560313 28.3205001,25.0342188 C28.3209375,27.0843438 27.1526875,28.0490625 25.4763438,28.0490625 L25.4762813,28.0490625 Z" id="形状"></path>
        </g>
    </g>
</svg>