<?xml version="1.0" encoding="UTF-8"?>
<svg width="40px" height="40px" viewBox="0 0 40 40" version="1.1" xmlns="http://www.w3.org/2000/svg" xmlns:xlink="http://www.w3.org/1999/xlink">
    <title>icon/平均响应时长</title>
    <g id="icon/平均响应时长" stroke="none" stroke-width="1" fill="none" fill-rule="evenodd">
        <g id="file--exception" fill="#000000" fill-rule="nonzero">
            <rect id="矩形" opacity="0" x="0" y="0" width="40" height="40"></rect>
            <path d="M26.843403,12.0926017 L26.843403,10.2142033 C26.843403,10.0420168 26.7032752,9.90113693 26.5320079,9.90113693 L11.5850444,9.90113693 C11.4137771,9.90113693 11.2736493,10.0420168 11.2736493,10.2142033 L11.2736493,12.0926017 C11.2736493,12.2647883 11.4137771,12.4056682 11.5850444,12.4056682 L26.5320079,12.4056682 C26.7032752,12.4056682 26.843403,12.2647883 26.843403,12.0926017 Z M11.5850444,15.5363322 C11.4137771,15.5363322 11.2736493,15.6772121 11.2736493,15.8493986 L11.2736493,17.727797 C11.2736493,17.8999835 11.4137771,18.0408634 11.5850444,18.0408634 L18.7471311,18.0408634 C18.9183984,18.0408634 19.0585261,17.8999835 19.0585261,17.727797 L19.0585261,15.8493986 C19.0585261,15.6772121 18.9183984,15.5363322 18.7471311,15.5363322 L11.5850444,15.5363322 Z M29.1749965,34.5482103 C29.3467469,34.5482103 29.4859781,34.6883749 29.4859781,34.8612767 L29.4859781,36.4726479 C29.4859781,36.6455497 29.3467469,36.7857143 29.1749965,36.7857143 L23.1330696,36.7857143 C22.9613192,36.7857143 22.822088,36.6455497 22.822088,36.4726479 L22.822088,34.8612767 C22.822088,34.6883749 22.9613192,34.5482103 23.1330696,34.5482103 L29.1749965,34.5482103 Z M31.5143291,2.85714286 C32.1964011,2.85714286 32.7487638,3.40561289 32.7599094,4.08866903 L32.7599094,4.10940847 L32.7599094,19.1365958 C32.7599094,19.3055335 32.6250196,19.4443349 32.4581747,19.4495125 L32.4485144,19.4496622 L30.2687488,19.4496622 C30.100713,19.4496622 29.9626527,19.3140484 29.9575027,19.1463081 L29.9573538,19.1365958 L29.9573538,5.67474049 L8.15969853,5.67474049 L8.15969853,33.224584 L17.1901557,33.224584 C17.3581915,33.224584 17.4962518,33.3601978 17.5014018,33.5279381 L17.5015508,33.5376504 L17.5015508,35.7291152 C17.5015508,35.8980529 17.3666609,36.0368542 17.1998161,36.0421816 L17.1901557,36.0421816 L6.60272316,36.0421816 C5.92065117,36.0421816 5.36828847,35.4937116 5.35714286,34.8106554 L5.35714286,34.789916 L5.35714286,4.10940847 C5.35714286,3.42367565 5.90268484,2.86834829 6.58209444,2.85714286 L6.60272316,2.85714286 L31.5143291,2.85714286 Z M26.9536999,18.4321964 C27.1254502,18.4321964 27.2646814,18.572361 27.2646814,18.7452628 L27.2646814,19.6628236 C30.8187561,20.2221996 33.5953769,23.1309548 33.9285714,26.8228364 L33.9285714,32.998992 C33.9285714,33.1718938 33.7893403,33.3120584 33.6175899,33.3120584 L18.6904762,33.3120584 C18.5187258,33.3120584 18.3794947,33.1718938 18.3794947,32.998992 L18.3794947,26.8228364 C18.7126892,23.1309548 21.48931,20.1103244 25.0433847,19.6628236 L25.0433847,18.7452628 C25.0433847,18.572361 25.1826159,18.4321964 25.3543662,18.4321964 L26.9536999,18.4321964 Z M26.154033,21.7884524 C23.0442177,21.7884524 20.6007914,24.2497068 20.6007914,27.3822124 L20.6007914,30.6832214 C20.6007914,30.8561232 20.7400225,30.9962878 20.9117729,30.9962878 L31.3962932,30.9962878 C31.5680436,30.9962878 31.7072747,30.8561232 31.7072747,30.6832214 L31.7072747,27.3822124 C31.7072747,24.2497068 29.2638484,21.7884524 26.154033,21.7884524 Z" id="形状"></path>
        </g>
    </g>
</svg>