<?xml version="1.0" encoding="UTF-8"?>
<svg width="40px" height="40px" viewBox="0 0 40 40" version="1.1" xmlns="http://www.w3.org/2000/svg" xmlns:xlink="http://www.w3.org/1999/xlink">
    <title>icon/setup</title>
    <g id="icon/setup" stroke="none" stroke-width="1" fill="none" fill-rule="evenodd">
        <g id="setup" fill="#000000" fill-rule="nonzero">
            <rect id="矩形" opacity="0" x="0" y="0" width="40" height="40"></rect>
            <path d="M32.2387486,22.0393996 C30.7339227,22.2618124 29.4148736,23.1581247 28.6600012,24.4712084 C27.895499,25.7768719 27.7739285,27.3584886 28.3300014,28.764463 C27.0483023,29.9064875 25.5424904,30.7721476 23.9075046,31.306865 C22.9613158,30.1227695 21.5211958,29.4353541 20.0000074,29.4416913 C18.4787607,29.4354114 17.0384465,30.1222418 16.0912601,31.3056223 C14.4564975,30.7710108 12.9507454,29.9058081 11.6687633,28.764463 C12.2252145,27.3586762 12.1041051,25.7770667 11.3400135,24.4712084 C10.5848791,23.1578125 9.26530244,22.2614549 7.76001608,22.0393996 C7.4119058,20.3642212 7.4119058,18.6359872 7.76001608,16.9608087 C9.26492666,16.7386783 10.5843165,15.8429056 11.3400135,14.5302426 C12.1041411,13.2239438 12.225245,11.6419486 11.6687633,10.2357453 C12.9504624,9.09372084 14.4562743,8.22806072 16.0912601,7.69334334 C17.0380647,8.87750743 18.4783783,9.56525332 20.0000074,9.55975967 C21.5512562,9.55975967 22.9712552,8.86389206 23.9075046,7.69334334 C25.5426094,8.22779658 27.0484732,9.09348658 28.3300014,10.2357453 C27.7740857,11.6421641 27.8956442,13.2240826 28.6600012,14.5302426 C29.4154361,15.8425936 30.7342985,16.738321 32.2387486,16.9608087 C32.5887342,18.6357961 32.5887342,20.3644122 32.2387486,22.0393996 M34.4324971,15.4261721 C34.2747007,14.8610395 33.7385465,14.4844144 33.149998,14.5252721 C32.2004762,14.589613 31.2974614,14.1089174 30.8249996,13.2876218 C30.3460921,12.4698164 30.3781135,11.4521447 30.9074996,10.6656921 C31.2317976,10.179327 31.1719944,9.5341631 30.7637497,9.11490145 C28.8253745,7.12616344 26.3674632,5.71425693 23.6662547,5.03786285 C23.0956679,4.89473721 22.5019969,5.16704221 22.2412558,5.69148135 C21.821835,6.54075474 20.9517215,7.07768723 20.000009,7.07451822 C19.0482932,7.07768723 18.1781797,6.54075474 17.7587589,5.69148135 C17.4976663,5.16740119 16.9043001,4.89523598 16.33376,5.03786285 C13.6325903,5.71366083 11.1746296,7.12516534 9.23626503,9.11365883 C8.82631069,9.53300763 8.76593622,10.1797544 9.09126513,10.6669347 C9.620725,11.4529074 9.65275206,12.4702767 9.17376507,13.2876218 C8.70065168,14.1082511 7.79809181,14.5887045 6.84876673,14.5252721 C6.25955344,14.481039 5.72181116,14.8591481 5.56751764,15.4261721 C5.18948311,16.7516837 4.9984916,18.1229712 5.00000897,19.5007255 C5.00000897,20.8850049 5.19001791,22.2556156 5.56751764,23.5740362 C5.72689279,24.1375132 6.26122516,24.5132248 6.84876673,24.4749362 C7.79764029,24.4150504 8.69862043,24.8951445 9.17376507,25.7138291 C9.65251473,26.536444 9.62126475,27.5404816 9.09126513,28.3332736 C8.76661674,28.8201879 8.82696669,29.4661549 9.23626503,29.8853069 C11.1741358,31.8744296 13.6322887,33.2860445 16.33376,33.9611028 C16.9040831,34.1049245 17.4979581,33.8330437 17.7587589,33.308727 C18.1783029,32.4597292 19.0484898,31.9232339 20.000009,31.9269327 C20.9575067,31.9269327 21.8162561,32.4562891 22.2412558,33.308727 C22.5023484,33.8328071 23.0957146,34.1049723 23.6662547,33.9623455 C26.3677396,33.2866289 28.825827,31.8746213 30.7637497,29.8853069 C31.1733058,29.4656504 31.2331575,28.8189279 30.9074996,28.332031 C30.3790755,27.5466406 30.3470586,26.5305569 30.8249996,25.7138291 C31.2940417,24.8889129 32.1992826,24.4065484 33.149998,24.4749362 C33.7374976,24.5097296 34.2712472,24.1357008 34.4324971,23.5740362 C34.8096754,22.2487703 35.0006514,20.878012 34.9999983,19.5007255 C34.9999983,18.116446 34.8087468,16.7458353 34.4324971,15.4249295 M20.0000074,23.2285876 C17.9325088,23.2285876 16.25001,21.5547775 16.25001,19.5007255 C16.25001,17.4441882 17.9325088,15.7728633 20.0000074,15.7728633 C22.0675059,15.7728633 23.75001,17.4441882 23.75001,19.5007255 C23.75001,21.5547775 22.0675059,23.2285876 20.0000074,23.2285876 M20.0000074,13.2876218 C16.5537598,13.2876218 13.7500118,16.0735775 13.7500118,19.5007255 C13.7500118,22.9266308 16.5537598,25.7138291 20.0000074,25.7138291 C23.4462549,25.7138291 26.2500118,22.9253882 26.2500118,19.5007255 C26.2500118,16.0735775 23.4462549,13.2876218 20.0000074,13.2876218" id="形状"></path>
        </g>
    </g>
</svg>