<?xml version="1.0" encoding="UTF-8"?>
<svg width="40px" height="40px" viewBox="0 0 40 40" version="1.1" xmlns="http://www.w3.org/2000/svg" xmlns:xlink="http://www.w3.org/1999/xlink">
    <title>icon/task</title>
    <g id="icon/task" stroke="none" stroke-width="1" fill="none" fill-rule="evenodd">
        <g id="task" fill="#000000" fill-rule="nonzero">
            <rect id="矩形" opacity="0" x="0" y="0" width="40" height="40"></rect>
            <path d="M8.54545455,31.4883478 L8.534,8.7826087 L12.3636364,8.7826087 L12.3636364,10.0308696 C12.3636364,11.427913 13.5027273,12.5652174 14.904,12.5652174 L25.096,12.5652174 C26.5033415,12.5589633 27.6398874,11.4251089 27.6363636,10.0308696 L27.6363636,8.7826087 L31.4545455,8.77252174 L31.4647273,31.4782609 L8.54545455,31.4883478 Z M25.0909091,7.53434783 L25.096,10.0434783 L14.9090909,10.0308696 L14.9090909,7.53434783 L14.904,7.52173913 L25.0909091,7.53434783 Z M31.4481818,6.26086957 L27.28,6.26086957 C26.8396364,5.51065217 26.0301818,5 25.096,5 L14.904,5 C13.9698182,5 13.1616364,5.5093913 12.72,6.26086957 L8.534,6.26086957 C7.13459557,6.26226063 6.00070146,7.38615472 6,8.77252174 L6,31.4883478 C6,32.8727826 7.13781818,34 8.53527273,34 L31.4647273,34 C32.8640479,33.9979169 33.9978973,32.8746313 34,31.4883478 L34,8.77252174 C33.9943871,7.38128081 32.8525133,6.25738032 31.4481818,6.26086957 Z M24.2585455,16.8635217 L18.2232727,23.3998696 L15.7529091,20.6574783 C15.2847725,20.1379944 14.4801874,20.0928336 13.9558182,20.5566087 C13.4314489,21.0203838 13.3858634,21.8174727 13.854,22.3369565 L17.2623636,26.1195652 C17.5020713,26.3855606 17.8442572,26.5385677 18.2041818,26.5406957 L18.2118182,26.5406957 C18.5681818,26.5406957 18.9092727,26.391913 19.1510909,26.130913 L26.1370909,18.5656957 C26.6115537,18.0517827 26.5756551,17.2541293 26.0569091,16.784087 C25.5381631,16.3140446 24.7330083,16.3496088 24.2585455,16.8635217" id="形状"></path>
        </g>
    </g>
</svg>