<?xml version="1.0" encoding="UTF-8"?>
<svg width="40px" height="40px" viewBox="0 0 40 40" version="1.1" xmlns="http://www.w3.org/2000/svg" xmlns:xlink="http://www.w3.org/1999/xlink">
    <title>icon/时间</title>
    <g id="icon/时间" stroke="none" stroke-width="1" fill="none" fill-rule="evenodd">
        <g id="计时器" fill="#000000" fill-rule="nonzero">
            <rect id="矩形" opacity="0" x="0" y="0" width="40" height="40"></rect>
            <path d="M20,32 C13.3725781,32 8,26.6274219 8,20 C8,13.3725781 13.3725781,8 20,8 C26.6274219,8 32,13.3725781 32,20 C32,26.6274219 26.6274219,32 20,32 Z M23.6369957,22.2033195 L20.8494349,19.8949485 L20.8494349,13.0012848 C20.8494349,12.4483025 20.4354137,12 19.9247175,12 C19.4140212,12 19,12.4483025 19,13.0012848 L19,20.8844909 L22.513485,23.7940197 C22.9191628,24.1299507 23.4995281,24.0461841 23.8097708,23.6069387 C24.1200135,23.1676705 24.0426525,22.5392505 23.6369957,22.2033195 L23.6369957,22.2033195 Z" id="形状"></path>
        </g>
    </g>
</svg>