<?xml version="1.0" encoding="UTF-8"?>
<svg width="40px" height="40px" viewBox="0 0 40 40" version="1.1" xmlns="http://www.w3.org/2000/svg" xmlns:xlink="http://www.w3.org/1999/xlink">
    <title>icon/计时器</title>
    <g id="icon/计时器" stroke="none" stroke-width="1" fill="none" fill-rule="evenodd">
        <g id="计时器" fill="#000000" fill-rule="nonzero">
            <rect id="矩形" opacity="0" x="0" y="0" width="40" height="40"></rect>
            <path d="M21,14.1725375 C16.667347,14.1725375 13.1428572,17.6915637 13.1428572,22.0175003 C13.1428572,26.343437 16.667347,29.8624631 21,29.8624631 C25.3326531,29.8624631 28.8571429,26.3434369 28.8571429,22.0175003 C28.8571429,17.6915636 25.3326531,14.1725375 21,14.1725375 Z M22.3693878,22.7885481 L22.364898,22.7795824 C22.0955102,23.2592458 21.5881633,23.5864929 21,23.5864929 C20.1334694,23.5864929 19.4285715,22.8826876 19.4285715,22.0175003 C19.4285715,21.4705943 19.7069388,20.9909309 20.1289796,20.7129951 L20.1244898,20.7040294 L25.3057143,17.7453577 L22.3693878,22.7885481 Z M29.5301633,15.0852429 L30.5242041,14.092743 C30.6997551,13.9174641 30.6997551,13.6337006 30.5242041,13.45887 L29.5719184,12.5080605 C29.3963674,12.3327816 29.1121633,12.3327816 28.9370612,12.5080605 L27.9430204,13.5005603 C26.3217551,12.1812617 24.3179592,11.3133847 22.122449,11.0914843 L22.122449,9.24141799 L23.4693878,9.24141799 C23.9655102,9.24141799 24.367347,8.84020418 24.367347,8.34485079 L24.367347,7.8965672 C24.367347,7.40121385 23.9655103,7 23.4693878,7 L18.5306123,7 C18.0344898,7 17.6326531,7.40121381 17.6326531,7.8965672 L17.6326531,8.34485079 C17.6326531,8.84020414 18.0344898,9.24141799 18.5306123,9.24141799 L19.877551,9.24141799 L19.877551,11.0910361 C17.6820409,11.3133847 15.6782449,12.1812618 14.0569796,13.5001121 L13.0629388,12.5076122 C12.8873878,12.3323333 12.6031837,12.3323333 12.4280817,12.5076122 L11.4757959,13.4584217 C11.3002449,13.6337006 11.3002449,13.9174641 11.4757959,14.0922947 L12.4698367,15.0847946 C10.9266939,16.9756548 10,19.3878688 10,22.017052 C10,28.082329 14.9253061,33 21,33 C27.0746939,33 32,28.082329 32,22.017052 C32,19.388317 31.0737551,16.976103 29.5301633,15.0852429 Z M21,30.7590303 C16.1734694,30.7590303 12.244898,26.8365489 12.244898,22.0175003 C12.244898,17.1984517 16.1734694,13.2759703 21,13.2759703 C25.8265306,13.2759703 29.7551021,17.1984517 29.7551021,22.0175003 C29.7551021,26.8365489 25.8265306,30.7590303 21,30.7590303 Z" id="形状"></path>
        </g>
    </g>
</svg>